<svg width="34" height="34" viewBox="0 0 34 34" fill="none" xmlns="http://www.w3.org/2000/svg">
<g id="devicon:apple">
<path id="Vector" d="M26.0059 18.0319C26.0522 23.0257 30.3872 24.6877 30.435 24.7089C30.3983 24.8258 29.7425 27.0772 28.1514 29.4023C26.776 31.4125 25.3483 33.4153 23.0997 33.4573C20.8903 33.4977 20.1797 32.1467 17.6534 32.1467C15.1278 32.1467 14.3386 33.4153 12.2468 33.4977C10.0761 33.58 8.42316 31.3235 7.03633 29.321C4.20265 25.224 2.03701 17.7437 4.9448 12.6944C6.38927 10.1869 8.97115 8.5993 11.7732 8.55839C13.9046 8.51775 15.9164 9.99223 17.2193 9.99223C18.5214 9.99223 20.9662 8.21892 23.5364 8.47923C24.6125 8.52412 27.6326 8.91379 29.572 11.7528C29.416 11.8497 25.9685 13.8568 26.0059 18.0319ZM21.8534 5.76906C23.0057 4.37426 23.7813 2.43201 23.5699 0.500122C21.9087 0.566794 19.9 1.60698 18.7087 3.00125C17.6409 4.23561 16.7059 6.21186 16.958 8.1055C18.8096 8.24894 20.7009 7.16465 21.8534 5.76906Z" fill="black"/>
</g>
</svg>
