<svg width="33" height="32" viewBox="0 0 33 32" fill="none" xmlns="http://www.w3.org/2000/svg">
<g id="token:chat">
<path id="Vector" d="M16.836 24.6747C17.6799 24.617 18.5167 24.4822 19.336 24.272C20.3479 24.5762 21.416 24.645 22.4587 24.4733C22.5003 24.4682 22.5421 24.4651 22.584 24.464C22.956 24.464 23.444 24.6773 24.156 25.1267V24.388C24.1563 24.2593 24.1911 24.133 24.2568 24.0224C24.3224 23.9117 24.4165 23.8206 24.5293 23.7587C24.8396 23.5835 25.1262 23.3867 25.3893 23.168C26.4267 22.3013 27.012 21.144 27.012 19.92C27.012 19.516 26.948 19.1133 26.8213 18.7293C27.136 18.1507 27.3867 17.5467 27.5733 16.9173C28.1733 17.804 28.496 18.8507 28.5 19.92C28.5 21.584 27.716 23.136 26.3573 24.2707C26.1298 24.46 25.892 24.6342 25.644 24.7933V26.524C25.644 27.1187 24.948 27.4613 24.4573 27.1067C23.9924 26.7646 23.5119 26.4442 23.0173 26.1467C22.8745 26.0643 22.7266 25.9908 22.5747 25.9267C22.1619 25.9878 21.7452 26.0185 21.328 26.0187C19.6347 26.0187 18.0693 25.516 16.836 24.6747ZM7.87467 21.2147C5.736 19.424 4.5 16.9827 4.5 14.3667C4.5 9.02266 9.60933 4.74933 15.848 4.74933C22.088 4.74933 27.1987 9.02133 27.1987 14.3667C27.1987 19.7107 22.088 23.9827 15.848 23.9827C15.1467 23.9827 14.4556 23.9293 13.7747 23.8227C13.4813 23.8907 12.3053 24.58 10.612 25.8C9.99867 26.2427 9.12933 25.816 9.12933 25.0707V22.12C8.69016 21.8485 8.27128 21.5455 7.876 21.2133M13.816 22.0027C13.8676 22.0027 13.9196 22.0067 13.972 22.0147C14.5853 22.116 15.2107 22.1671 15.848 22.168C21.1187 22.168 25.336 18.6413 25.336 14.3653C25.336 10.0907 21.1187 6.56399 15.8493 6.56399C10.58 6.56399 6.36 10.0933 6.36 14.3667C6.36 16.4333 7.34667 18.38 9.088 19.8373C9.52711 20.2036 10.0053 20.5324 10.5227 20.824C10.663 20.9019 10.7801 21.0156 10.8621 21.1536C10.9441 21.2916 10.988 21.4488 10.9893 21.6093V23.3107C12.3293 22.424 13.2107 22.0027 13.816 22.0027Z" fill="black"/>
<path id="Vector_2" d="M11.2495 16C11.6473 16 12.0289 15.842 12.3102 15.5607C12.5915 15.2794 12.7495 14.8978 12.7495 14.5C12.7495 14.1022 12.5915 13.7206 12.3102 13.4393C12.0289 13.158 11.6473 13 11.2495 13C10.8517 13 10.4702 13.158 10.1889 13.4393C9.90755 13.7206 9.74951 14.1022 9.74951 14.5C9.74951 14.8978 9.90755 15.2794 10.1889 15.5607C10.4702 15.842 10.8517 16 11.2495 16ZM16.1255 16C16.5233 16 16.9049 15.842 17.1862 15.5607C17.4675 15.2794 17.6255 14.8978 17.6255 14.5C17.6255 14.1022 17.4675 13.7206 17.1862 13.4393C16.9049 13.158 16.5233 13 16.1255 13C15.7277 13 15.3462 13.158 15.0649 13.4393C14.7835 13.7206 14.6255 14.1022 14.6255 14.5C14.6255 14.8978 14.7835 15.2794 15.0649 15.5607C15.3462 15.842 15.7277 16 16.1255 16ZM21.0002 16C21.398 16 21.7795 15.842 22.0608 15.5607C22.3421 15.2794 22.5002 14.8978 22.5002 14.5C22.5002 14.1022 22.3421 13.7206 22.0608 13.4393C21.7795 13.158 21.398 13 21.0002 13C20.6024 13 20.2208 13.158 19.9395 13.4393C19.6582 13.7206 19.5002 14.1022 19.5002 14.5C19.5002 14.8978 19.6582 15.2794 19.9395 15.5607C20.2208 15.842 20.6024 16 21.0002 16Z" fill="black"/>
</g>
</svg>
