<svg width="32" height="32" viewBox="0 0 32 32" fill="none" xmlns="http://www.w3.org/2000/svg">
<g id="gravity-ui:pencil-to-square">
<path id="Vector" fill-rule="evenodd" clip-rule="evenodd" d="M12.338 12.662C11.4675 13.5325 10.8859 14.6497 10.672 15.862L9.996 19.686C9.93992 20.0028 9.9611 20.3285 10.0577 20.6354C10.1544 20.9423 10.3237 21.2213 10.5512 21.4488C10.7787 21.6763 11.0577 21.8456 11.3646 21.9423C11.6715 22.0389 11.9972 22.0601 12.314 22.004L16.138 21.328C17.3503 21.1141 18.4675 20.5325 19.338 19.662L25.478 13.522L29.478 9.522C29.811 9.18624 29.9985 8.73291 30 8.26C30 6.59974 29.3405 5.00749 28.1665 3.83351C26.9925 2.65953 25.4003 2 23.74 2C23.2661 2.00147 22.8119 2.18976 22.476 2.524L18.476 6.524L12.338 12.662ZM20.21 9.034L14.458 14.784C14.0231 15.2194 13.7327 15.778 13.626 16.384L13.2 18.8L15.616 18.374L15.73 18.354C16.293 18.2316 16.8089 17.9497 17.216 17.542L22.966 11.79C22.8648 11.095 22.5418 10.4514 22.0452 9.95478C21.5486 9.45819 20.9049 9.13524 20.21 9.034ZM25.326 9.432C24.723 8.2425 23.7571 7.27582 22.568 6.672L24.208 5.032C24.9043 5.13266 25.5493 5.45584 26.0467 5.95329C26.5442 6.45073 26.8673 7.09575 26.968 7.792L25.326 9.432ZM16 4.5C16 4.10218 15.842 3.72064 15.5607 3.43934C15.2794 3.15804 14.8978 3 14.5 3H9C7.4087 3 5.88258 3.63214 4.75736 4.75736C3.63214 5.88258 3 7.4087 3 9V23C3 24.5913 3.63214 26.1174 4.75736 27.2426C5.88258 28.3679 7.4087 29 9 29H23C24.5913 29 26.1174 28.3679 27.2426 27.2426C28.3679 26.1174 29 24.5913 29 23V17.5C29 17.1022 28.842 16.7206 28.5607 16.4393C28.2794 16.158 27.8978 16 27.5 16C27.1022 16 26.7206 16.158 26.4393 16.4393C26.158 16.7206 26 17.1022 26 17.5V23C26 23.7956 25.6839 24.5587 25.1213 25.1213C24.5587 25.6839 23.7956 26 23 26H9C8.20435 26 7.44129 25.6839 6.87868 25.1213C6.31607 24.5587 6 23.7956 6 23V9C6 8.20435 6.31607 7.44129 6.87868 6.87868C7.44129 6.31607 8.20435 6 9 6H14.5C14.8978 6 15.2794 5.84196 15.5607 5.56066C15.842 5.27936 16 4.89782 16 4.5Z" fill="black"/>
</g>
</svg>
