<svg width="32" height="32" viewBox="0 0 32 32" fill="none" xmlns="http://www.w3.org/2000/svg">
<g id="simple-icons:facebook" clip-path="url(#clip0_42_212)">
<path id="Vector" d="M12.1347 31.588V20.9481H8.836V16.0587H12.1347V13.952C12.1347 8.50538 14.5987 5.98138 19.9453 5.98138C20.48 5.98138 21.2187 6.03738 21.9027 6.11872C22.4148 6.17265 22.923 6.25949 23.424 6.37872V10.812C23.1345 10.7855 22.844 10.7695 22.5533 10.764C22.2276 10.7556 21.9018 10.7516 21.576 10.7521C20.6333 10.7521 19.8973 10.88 19.3427 11.1641C18.9703 11.3519 18.6571 11.6389 18.4373 11.9934C18.0933 12.5534 17.9387 13.32 17.9387 14.3294V16.0587H23.164L22.6493 18.8627L22.2667 20.9481H17.9387V31.9414C25.8613 30.984 32 24.2387 32 16.0587C32 7.22272 24.836 0.0587158 16 0.0587158C7.164 0.0587158 0 7.22272 0 16.0587C0 23.5627 5.16533 29.8587 12.1347 31.588Z" fill="#3D5A98"/>
</g>
<defs>
<clipPath id="clip0_42_212">
<rect width="32" height="32" fill="white"/>
</clipPath>
</defs>
</svg>
