<svg width="29" height="28" viewBox="0 0 29 28" fill="none" xmlns="http://www.w3.org/2000/svg">
<path d="M25.6186 16.8814L23.25 14.5127V11.375C23.2473 9.20661 22.4406 7.11624 20.9861 5.50811C19.5315 3.89998 17.5322 2.88832 15.375 2.66875V0.875H13.625V2.66875C11.4678 2.88832 9.46854 3.89998 8.01395 5.50811C6.55936 7.11624 5.75271 9.20661 5.75 11.375V14.5127L3.38137 16.8814C3.21727 17.0454 3.12505 17.268 3.125 17.5V20.125C3.125 20.3571 3.21719 20.5796 3.38128 20.7437C3.54538 20.9078 3.76794 21 4 21H10.125V21.6799C10.1056 22.79 10.4967 23.8683 11.2234 24.7078C11.95 25.5473 12.961 26.089 14.0625 26.229C14.6708 26.2893 15.285 26.2217 15.8655 26.0304C16.4461 25.8391 16.9802 25.5284 17.4335 25.1183C17.8867 24.7082 18.2492 24.2078 18.4974 23.6492C18.7457 23.0906 18.8743 22.4863 18.875 21.875V21H25C25.2321 21 25.4546 20.9078 25.6187 20.7437C25.7828 20.5796 25.875 20.3571 25.875 20.125V17.5C25.875 17.268 25.7827 17.0454 25.6186 16.8814ZM17.125 21.875C17.125 22.5712 16.8484 23.2389 16.3562 23.7312C15.8639 24.2234 15.1962 24.5 14.5 24.5C13.8038 24.5 13.1361 24.2234 12.6438 23.7312C12.1516 23.2389 11.875 22.5712 11.875 21.875V21H17.125V21.875ZM24.125 19.25H4.875V17.8622L7.24362 15.4936C7.40773 15.3296 7.49995 15.107 7.5 14.875V11.375C7.5 9.51848 8.2375 7.73801 9.55025 6.42525C10.863 5.1125 12.6435 4.375 14.5 4.375C16.3565 4.375 18.137 5.1125 19.4497 6.42525C20.7625 7.73801 21.5 9.51848 21.5 11.375V14.875C21.5 15.107 21.5923 15.3296 21.7564 15.4936L24.125 17.8622V19.25Z" fill="black"/>
</svg>
