<svg width="29" height="28" viewBox="0 0 29 28" fill="none" xmlns="http://www.w3.org/2000/svg">
<path fill-rule="evenodd" clip-rule="evenodd" d="M7.18837 2.38352C8.6082 0.971854 10.9462 1.22269 12.135 2.81169L13.6074 4.77635C14.5757 6.06902 14.4894 7.87502 13.3402 9.01719L13.0625 9.29485C13.031 9.41141 13.0278 9.53381 13.0532 9.65185C13.1267 10.1279 13.5245 11.1359 15.1905 12.7925C16.8565 14.4492 17.8715 14.8459 18.3545 14.9205C18.4762 14.945 18.6019 14.9414 18.722 14.91L19.198 14.4364C20.22 13.4214 21.788 13.2312 23.0527 13.9184L25.281 15.1317C27.1909 16.1677 27.6727 18.7624 26.1094 20.3175L24.4515 21.9649C23.9289 22.484 23.2265 22.9169 22.3702 22.9974C20.2585 23.1945 15.3387 22.9425 10.1669 17.801C5.34037 13.0014 4.41404 8.81535 4.2962 6.75269C4.23787 5.70969 4.7302 4.82769 5.35787 4.20469L7.18837 2.38352ZM10.735 3.86052C10.1435 3.07069 9.0422 3.00769 8.42154 3.62485L6.58987 5.44485C6.20487 5.82752 6.02054 6.24985 6.04387 6.65352C6.1372 8.29269 6.88387 12.0692 11.4012 16.5609C16.1402 21.2719 20.5164 21.413 22.208 21.2544C22.5534 21.2229 22.8964 21.0432 23.2172 20.7247L24.8739 19.0762C25.5482 18.4065 25.4 17.1862 24.4457 16.6682L22.2174 15.456C21.6014 15.1224 20.8804 15.232 20.4324 15.6777L19.9015 16.2062L19.2832 15.5855C19.9015 16.2062 19.9004 16.2074 19.8992 16.2074L19.898 16.2097L19.8945 16.2132L19.8864 16.2202L19.8689 16.2365C19.8196 16.2822 19.7666 16.3236 19.7102 16.3602C19.6169 16.422 19.4932 16.4909 19.338 16.548C19.023 16.6659 18.6054 16.7289 18.0897 16.6495C17.0782 16.4944 15.7377 15.8049 13.9562 14.0339C12.1759 12.2629 11.4805 10.9305 11.3242 9.92019C11.2437 9.40452 11.3079 8.98685 11.4269 8.67185C11.4924 8.4946 11.5861 8.32912 11.7045 8.18185L11.7419 8.14102L11.7582 8.12352L11.7652 8.11652L11.7687 8.11302L11.771 8.11069L12.107 7.77702C12.6064 7.27885 12.6764 6.45402 12.2062 5.82519L10.735 3.86052Z" fill="black"/>
</svg>
