<svg width="29" height="28" viewBox="0 0 29 28" fill="none" xmlns="http://www.w3.org/2000/svg">
<path d="M17.7132 11.6667C18.8402 11.6667 19.7548 12.5813 19.7548 13.7083V19.2488C19.7548 20.6415 19.2016 21.9772 18.2168 22.962C17.232 23.9468 15.8964 24.5 14.5037 24.5C13.111 24.5 11.7753 23.9468 10.7905 22.962C9.80574 21.9772 9.2525 20.6415 9.2525 19.2488V13.7083C9.2525 12.5813 10.166 11.6667 11.2942 11.6667H17.7132ZM17.7132 13.4167H11.2942C11.2168 13.4167 11.1426 13.4474 11.0879 13.5021C11.0332 13.5568 11.0025 13.631 11.0025 13.7083V19.2488C11.0025 20.1774 11.3714 21.0679 12.028 21.7245C12.6846 22.3811 13.5751 22.75 14.5037 22.75C15.4322 22.75 16.3228 22.3811 16.9794 21.7245C17.636 21.0679 18.0048 20.1774 18.0048 19.2488V13.7083C18.0048 13.631 17.9741 13.5568 17.9194 13.5021C17.8647 13.4474 17.7905 13.4167 17.7132 13.4167ZM4.87516 11.6667H8.81966C8.40819 12.1638 8.15683 12.7739 8.09866 13.4167H4.87516C4.79781 13.4167 4.72362 13.4474 4.66892 13.5021C4.61423 13.5568 4.5835 13.631 4.5835 13.7083V17.4988C4.5832 17.9398 4.68288 18.375 4.87504 18.7719C5.0672 19.1688 5.34685 19.5169 5.69294 19.7901C6.03903 20.0633 6.44257 20.2545 6.8732 20.3493C7.30382 20.4441 7.75034 20.44 8.17916 20.3373C8.27833 20.9253 8.45916 21.4865 8.70766 22.008C8.32188 22.113 7.91938 22.1659 7.50016 22.1667C6.88723 22.1667 6.2803 22.0459 5.71404 21.8113C5.14778 21.5767 4.63327 21.2329 4.19992 20.7994C3.76656 20.366 3.42284 19.8514 3.18839 19.285C2.95394 18.7187 2.83334 18.1118 2.8335 17.4988V13.7083C2.8335 12.5813 3.74816 11.6667 4.87516 11.6667ZM20.1877 11.6667H24.1252C25.2522 11.6667 26.1668 12.5813 26.1668 13.7083V17.5C26.167 18.2154 26.0027 18.9212 25.6866 19.5629C25.3705 20.2047 24.9112 20.7652 24.344 21.2011C23.7768 21.637 23.117 21.9367 22.4155 22.077C21.7141 22.2174 20.9897 22.1945 20.2985 22.0103C20.5482 21.4877 20.729 20.9265 20.8293 20.3385C21.0448 20.3898 21.2684 20.4159 21.5002 20.4167C22.2737 20.4167 23.0156 20.1094 23.5626 19.5624C24.1095 19.0154 24.4168 18.2735 24.4168 17.5V13.7083C24.4168 13.631 24.3861 13.5568 24.3314 13.5021C24.2767 13.4474 24.2025 13.4167 24.1252 13.4167H20.9087C20.8505 12.7739 20.5991 12.1638 20.1877 11.6667ZM14.5002 3.5C15.4284 3.5 16.3187 3.86875 16.975 4.52513C17.6314 5.1815 18.0002 6.07174 18.0002 7C18.0002 7.92826 17.6314 8.8185 16.975 9.47487C16.3187 10.1313 15.4284 10.5 14.5002 10.5C13.5719 10.5 12.6817 10.1313 12.0253 9.47487C11.3689 8.8185 11.0002 7.92826 11.0002 7C11.0002 6.07174 11.3689 5.1815 12.0253 4.52513C12.6817 3.86875 13.5719 3.5 14.5002 3.5ZM22.0835 4.66667C22.857 4.66667 23.5989 4.97396 24.1459 5.52094C24.6929 6.06792 25.0002 6.80979 25.0002 7.58333C25.0002 8.35688 24.6929 9.09875 24.1459 9.64573C23.5989 10.1927 22.857 10.5 22.0835 10.5C21.3099 10.5 20.5681 10.1927 20.0211 9.64573C19.4741 9.09875 19.1668 8.35688 19.1668 7.58333C19.1668 6.80979 19.4741 6.06792 20.0211 5.52094C20.5681 4.97396 21.3099 4.66667 22.0835 4.66667ZM6.91683 4.66667C7.69038 4.66667 8.43224 4.97396 8.97922 5.52094C9.52621 6.06792 9.8335 6.80979 9.8335 7.58333C9.8335 8.35688 9.52621 9.09875 8.97922 9.64573C8.43224 10.1927 7.69038 10.5 6.91683 10.5C6.14328 10.5 5.40142 10.1927 4.85443 9.64573C4.30745 9.09875 4.00016 8.35688 4.00016 7.58333C4.00016 6.80979 4.30745 6.06792 4.85443 5.52094C5.40142 4.97396 6.14328 4.66667 6.91683 4.66667ZM14.5002 5.25C14.036 5.25 13.5909 5.43437 13.2627 5.76256C12.9345 6.09075 12.7502 6.53587 12.7502 7C12.7502 7.46413 12.9345 7.90925 13.2627 8.23744C13.5909 8.56563 14.036 8.75 14.5002 8.75C14.9643 8.75 15.4094 8.56563 15.7376 8.23744C16.0658 7.90925 16.2502 7.46413 16.2502 7C16.2502 6.53587 16.0658 6.09075 15.7376 5.76256C15.4094 5.43437 14.9643 5.25 14.5002 5.25ZM22.0835 6.41667C21.7741 6.41667 21.4773 6.53958 21.2585 6.75838C21.0397 6.97717 20.9168 7.27391 20.9168 7.58333C20.9168 7.89275 21.0397 8.1895 21.2585 8.40829C21.4773 8.62708 21.7741 8.75 22.0835 8.75C22.3929 8.75 22.6897 8.62708 22.9085 8.40829C23.1272 8.1895 23.2502 7.89275 23.2502 7.58333C23.2502 7.27391 23.1272 6.97717 22.9085 6.75838C22.6897 6.53958 22.3929 6.41667 22.0835 6.41667ZM6.91683 6.41667C6.60741 6.41667 6.31066 6.53958 6.09187 6.75838C5.87308 6.97717 5.75016 7.27391 5.75016 7.58333C5.75016 7.89275 5.87308 8.1895 6.09187 8.40829C6.31066 8.62708 6.60741 8.75 6.91683 8.75C7.22625 8.75 7.52299 8.62708 7.74179 8.40829C7.96058 8.1895 8.0835 7.89275 8.0835 7.58333C8.0835 7.27391 7.96058 6.97717 7.74179 6.75838C7.52299 6.53958 7.22625 6.41667 6.91683 6.41667Z" fill="black"/>
</svg>
